<?xml version="1.0" encoding="UTF-8" standalone="no"?>
<!-- Created with Inkscape (http://www.inkscape.org/) -->

<svg
   xmlns:ns0="http://www.iki.fi/pav/software/textext/"
   xmlns:dc="http://purl.org/dc/elements/1.1/"
   xmlns:cc="http://creativecommons.org/ns#"
   xmlns:rdf="http://www.w3.org/1999/02/22-rdf-syntax-ns#"
   xmlns:svg="http://www.w3.org/2000/svg"
   xmlns="http://www.w3.org/2000/svg"
   xmlns:sodipodi="http://sodipodi.sourceforge.net/DTD/sodipodi-0.dtd"
   xmlns:inkscape="http://www.inkscape.org/namespaces/inkscape"
   width="300"
   height="300"
   viewBox="0 0 210 297"
   version="1.1"
   id="svg13752"
   inkscape:version="0.92.1 r15371"
   sodipodi:docname="tabular_representation.svg">
  <sodipodi:namedview
     id="base"
     pagecolor="#ffffff"
     bordercolor="#666666"
     borderopacity="1.0"
     inkscape:pageopacity="0.0"
     inkscape:pageshadow="2"
     inkscape:zoom="2.8284271"
     inkscape:cx="51.682758"
     inkscape:cy="145.38569"
     inkscape:document-units="px"
     inkscape:current-layer="layer1"
     showgrid="false"
     inkscape:window-width="1858"
     inkscape:window-height="1057"
     inkscape:window-x="54"
     inkscape:window-y="-8"
     inkscape:window-maximized="1" />
  <defs
     id="defs13746">
    <marker
       inkscape:isstock="true"
       style="overflow:visible;"
       id="Arrow1Lend"
       refX="0.0"
       refY="0.0"
       orient="auto"
       inkscape:stockid="Arrow1Lend">
      <path
         transform="scale(0.8) rotate(180) translate(12.5,0)"
         style="fill-rule:evenodd;stroke:#000000;stroke-width:1pt;stroke-opacity:1;fill:#000000;fill-opacity:1"
         d="M 0.0,0.0 L 5.0,-5.0 L -12.5,0.0 L 5.0,5.0 L 0.0,0.0 z "
         id="path960" />
    </marker>
    <marker
       inkscape:isstock="true"
       style="overflow:visible"
       id="Arrow1Lstart"
       refX="0.0"
       refY="0.0"
       orient="auto"
       inkscape:stockid="Arrow1Lstart">
      <path
         transform="scale(0.8) translate(12.5,0)"
         style="fill-rule:evenodd;stroke:#000000;stroke-width:1pt;stroke-opacity:1;fill:#000000;fill-opacity:1"
         d="M 0.0,0.0 L 5.0,-5.0 L -12.5,0.0 L 5.0,5.0 L 0.0,0.0 z "
         id="path957" />
    </marker>
  </defs>
  <metadata
     id="metadata13749">
    <rdf:RDF>
      <cc:Work
         rdf:about="">
        <dc:format>image/svg+xml</dc:format>
        <dc:type
           rdf:resource="http://purl.org/dc/dcmitype/StillImage" />
        <dc:title></dc:title>
      </cc:Work>
    </rdf:RDF>
  </metadata>
  <g
     id="layer1"
     inkscape:groupmode="layer"
     inkscape:label="Layer 1">
    <circle
       r="50"
       cy="78.209999"
       cx="97.574997"
       id="path13754"
       style="fill:#cccccc;stroke-width:0.99155903;stroke-linecap:square;stroke-linejoin:miter;stroke-miterlimit:4;stroke-dasharray:none;paint-order:markers fill stroke" />
    <circle
       r="50"
       cy="220.77"
       cx="96.090004"
       id="path13754-3"
       style="fill:#cccccc;stroke-width:0.99155903;stroke-linecap:square;stroke-linejoin:miter;stroke-miterlimit:4;stroke-dasharray:none;paint-order:markers fill stroke" />
    <g
       ns0:preamble="C:\\Users\\rain\\AppData\\Roaming\\inkscape\\extensions\\default_packages.tex"
       ns0:text="$Pa_{X}$"
       word-spacing="normal"
       letter-spacing="normal"
       font-size-adjust="none"
       font-stretch="normal"
       font-weight="normal"
       font-variant="normal"
       font-style="normal"
       stroke-miterlimit="10.433"
       xml:space="preserve"
       transform="matrix(3.1861028,0,0,-3.1861028,-407.56987,2340.9489)"
       id="content"
       style="font-style:normal;font-variant:normal;font-weight:normal;font-stretch:normal;letter-spacing:normal;word-spacing:normal;text-anchor:start;fill:#000000;fill-opacity:1;fill-rule:evenodd;stroke:#000000;stroke-linecap:butt;stroke-linejoin:miter;stroke-miterlimit:10.43299961;stroke-dasharray:none;stroke-dashoffset:0;stroke-opacity:1"><path
         id="path106"
         d="m 151.73,710.37 0.04,0.26 0.68,2.7 c 0.09,0.35 0.11,0.38 0.54,0.38 h 0.96 c 0.82,0 1.35,-0.27 1.35,-0.95 0,-0.39 -0.2,-1.24 -0.59,-1.6 -0.49,-0.45 -1.09,-0.53 -1.53,-0.53 h -1.41 l -0.04,-0.26 h 1.7 c 1.42,0 2.8,1.04 2.8,2.15 0,0.76 -0.66,1.5 -1.96,1.5 h -3.23 c -0.19,0 -0.3,0 -0.3,-0.19 0,-0.12 0.09,-0.12 0.29,-0.12 0.12,0 0.31,-0.01 0.42,-0.02 0.16,-0.02 0.22,-0.05 0.22,-0.16 0,-0.04 -0.01,-0.07 -0.04,-0.19 l -1.33,-5.33 c -0.1,-0.39 -0.12,-0.47 -0.91,-0.47 -0.17,0 -0.28,0 -0.28,-0.19 0,-0.12 0.12,-0.12 0.15,-0.12 0.28,0 0.99,0.04 1.27,0.04 0.21,0 0.43,-0.01 0.63,-0.01 0.22,0 0.44,-0.03 0.65,-0.03 0.07,0 0.2,0 0.2,0.2 0,0.11 -0.09,0.11 -0.28,0.11 -0.36,0 -0.64,0 -0.64,0.18 0,0.06 0.01,0.11 0.03,0.17 z"
         inkscape:connector-curvature="0"
         style="fill:#000000;stroke-width:0" /><path
         id="path108"
         d="m 160.21,710.99 -0.02,0.03 -0.01,0.04 -0.02,0.03 -0.02,0.03 -0.02,0.03 -0.02,0.03 -0.02,0.03 -0.02,0.03 -0.03,0.03 -0.02,0.03 -0.02,0.03 -0.03,0.02 -0.02,0.03 -0.03,0.02 -0.03,0.02 -0.03,0.03 -0.02,0.02 -0.03,0.02 -0.03,0.01 -0.03,0.02 -0.04,0.02 -0.03,0.01 -0.03,0.02 -0.04,0.01 -0.03,0.01 -0.04,0.01 -0.04,0.01 h -0.03 l -0.04,0.01 h -0.04 l -0.04,0.01 h -0.05 c -1.16,0 -2.4,-1.47 -2.4,-2.91 0,-0.94 0.55,-1.59 1.33,-1.59 l 0.02,0.21 c -0.5,0 -0.64,0.55 -0.64,0.94 0,0.5 0.32,1.72 0.55,2.17 0.31,0.59 0.76,0.96 1.15,0.96 0.65,0 0.79,-0.82 0.79,-0.88 0,-0.06 -0.02,-0.12 -0.03,-0.17 l -0.5,-1.94 c -0.05,-0.18 -0.05,-0.2 -0.19,-0.37 -0.44,-0.55 -0.85,-0.71 -1.13,-0.71 l -0.02,-0.21 c 0.2,0 0.7,0.03 1.29,0.74 0.08,-0.42 0.43,-0.74 0.91,-0.74 0.35,0 0.58,0.22 0.74,0.54 0.17,0.36 0.3,0.97 0.3,0.99 0,0.1 -0.09,0.1 -0.12,0.1 -0.1,0 -0.11,-0.04 -0.14,-0.18 -0.17,-0.65 -0.35,-1.24 -0.76,-1.24 -0.27,0 -0.3,0.26 -0.3,0.46 0,0.22 0.02,0.3 0.13,0.74 0.11,0.41 0.13,0.51 0.22,0.89 l 0.36,1.39 c 0.07,0.28 0.07,0.3 0.07,0.34 0,0.17 -0.12,0.27 -0.29,0.27 -0.24,0 -0.39,-0.22 -0.42,-0.44 z"
         inkscape:connector-curvature="0"
         style="fill:#000000;stroke-width:0" /><path
         id="path110"
         d="m 165.65,708.4 0.66,0.66 c 0.9,0.87 1.17,1.15 1.8,1.18 0.09,0.01 0.17,0.01 0.17,0.15 0,0.08 -0.07,0.1 -0.1,0.1 -0.2,0 -0.44,-0.03 -0.65,-0.03 -0.18,0 -0.63,0.03 -0.82,0.03 -0.05,0 -0.14,-0.02 -0.14,-0.15 0,-0.01 0,-0.09 0.11,-0.1 0.06,-0.01 0.24,-0.02 0.24,-0.17 0,-0.11 -0.11,-0.22 -0.18,-0.29 -0.05,-0.05 -0.94,-0.91 -1.2,-1.17 l -0.71,1.36 c -0.01,0.02 -0.03,0.07 -0.03,0.1 0,0.04 0.13,0.16 0.37,0.17 0.05,0 0.15,0.01 0.15,0.15 0,0.01 -0.01,0.1 -0.12,0.1 -0.15,0 -0.32,-0.02 -0.47,-0.02 -0.15,0 -0.31,-0.01 -0.46,-0.01 -0.11,0 -0.28,0 -0.41,0.01 -0.12,0.01 -0.26,0.02 -0.37,0.02 -0.04,0 -0.15,0 -0.15,-0.15 0,-0.1 0.09,-0.1 0.2,-0.1 0.41,0 0.44,-0.07 0.51,-0.21 l 0.98,-1.92 -0.39,-0.39 c -0.13,-0.12 -0.46,-0.44 -0.59,-0.57 -0.85,-0.84 -1.14,-1.13 -1.77,-1.16 -0.1,-0.01 -0.17,-0.01 -0.17,-0.15 0,-0.03 0.02,-0.1 0.1,-0.1 0.2,0 0.44,0.03 0.65,0.03 0.12,0 0.29,0 0.41,-0.01 0.12,0 0.28,-0.02 0.4,-0.02 0.03,0 0.14,0 0.14,0.15 0,0.09 -0.08,0.1 -0.12,0.1 -0.07,0.01 -0.22,0.03 -0.22,0.17 0,0.12 0.09,0.21 0.25,0.36 l 1.41,1.38 0.85,-1.64 c 0.04,-0.07 0.04,-0.09 0.04,-0.1 0,-0.04 -0.12,-0.15 -0.37,-0.17 -0.06,-0.01 -0.15,-0.01 -0.15,-0.15 0,-0.01 0.01,-0.1 0.12,-0.1 0.14,0 0.32,0.02 0.47,0.02 0.14,0 0.3,0.01 0.45,0.01 0.12,0 0.29,0 0.41,-0.01 0.12,0 0.27,-0.02 0.38,-0.02 0.04,0 0.15,0 0.15,0.15 0,0.1 -0.09,0.1 -0.21,0.1 -0.4,0 -0.44,0.08 -0.5,0.2 z"
         inkscape:connector-curvature="0"
         style="fill:#000000;stroke-width:0" /></g>    <g
       style="font-style:normal;font-variant:normal;font-weight:normal;font-stretch:normal;letter-spacing:normal;word-spacing:normal;text-anchor:start;fill:#000000;fill-opacity:1;fill-rule:evenodd;stroke:#000000;stroke-linecap:butt;stroke-linejoin:miter;stroke-miterlimit:10.43299961;stroke-dasharray:none;stroke-dashoffset:0;stroke-opacity:1"
       id="g135"
       transform="matrix(3.1290621,0,0,-3.9898429,-381.53079,3054.9357)"
       xml:space="preserve"
       stroke-miterlimit="10.433"
       font-style="normal"
       font-variant="normal"
       font-weight="normal"
       font-stretch="normal"
       font-size-adjust="none"
       letter-spacing="normal"
       word-spacing="normal"
       ns0:text="$X$"
       ns0:preamble="C:\\Users\\rain\\AppData\\Roaming\\inkscape\\extensions\\default_packages.tex"><path
         style="fill:#000000;stroke-width:0"
         inkscape:connector-curvature="0"
         d="m 153.55,711.32 -0.84,1.97 c -0.03,0.08 -0.05,0.12 -0.05,0.13 0,0.06 0.17,0.25 0.59,0.29 0.1,0.01 0.2,0.02 0.2,0.19 0,0.12 -0.12,0.12 -0.15,0.12 -0.41,0 -0.84,-0.03 -1.26,-0.03 -0.25,0 -0.86,0.03 -1.11,0.03 -0.06,0 -0.18,0 -0.18,-0.2 0,-0.11 0.1,-0.11 0.23,-0.11 0.59,0 0.65,-0.1 0.74,-0.32 l 1.18,-2.77 -2.1,-2.25 -0.13,-0.11 c -0.49,-0.53 -0.96,-0.69 -1.47,-0.72 -0.13,-0.01 -0.22,-0.01 -0.22,-0.2 0,-0.01 0,-0.11 0.13,-0.11 0.3,0 0.63,0.04 0.94,0.04 0.37,0 0.76,-0.04 1.11,-0.04 0.07,0 0.19,0 0.19,0.2 0,0.1 -0.11,0.11 -0.12,0.11 -0.1,0.01 -0.4,0.03 -0.4,0.31 0,0.16 0.15,0.32 0.27,0.45 l 1.01,1.07 0.9,0.97 1.01,-2.37 c 0.04,-0.11 0.05,-0.12 0.05,-0.14 0,-0.08 -0.19,-0.25 -0.58,-0.29 -0.11,-0.01 -0.2,-0.02 -0.2,-0.19 0,-0.12 0.11,-0.12 0.15,-0.12 0.28,0 0.98,0.04 1.26,0.04 0.25,0 0.85,-0.04 1.1,-0.04 0.07,0 0.19,0 0.19,0.19 0,0.12 -0.1,0.12 -0.18,0.12 -0.67,0.01 -0.69,0.04 -0.86,0.44 -0.38,0.92 -1.05,2.47 -1.28,3.07 0.68,0.69 1.72,1.88 2.04,2.16 0.29,0.23 0.67,0.47 1.27,0.5 0.13,0.01 0.22,0.01 0.22,0.2 0,0.01 0,0.11 -0.13,0.11 -0.3,0 -0.63,-0.03 -0.94,-0.03 -0.37,0 -0.75,0.03 -1.11,0.03 -0.06,0 -0.18,0 -0.18,-0.2 0,-0.07 0.04,-0.1 0.11,-0.11 0.09,-0.01 0.4,-0.03 0.4,-0.31 0,-0.13 -0.11,-0.26 -0.19,-0.35 z"
         id="path133" /></g>    <path
       inkscape:connector-curvature="0"
       id="path150"
       d="m 98.618646,129.11335 -0.718213,38.08648"
       style="fill:none;stroke:#000000;stroke-width:0.95488393px;stroke-linecap:butt;stroke-linejoin:miter;stroke-opacity:1;marker-end:url(#Arrow1Lend)" />
    <g
       ns0:preamble="C:\\Users\\rain\\AppData\\Roaming\\inkscape\\extensions\\default_packages.tex"
       ns0:text="$P(x|pa_{X})$"
       word-spacing="normal"
       letter-spacing="normal"
       font-size-adjust="none"
       font-stretch="normal"
       font-weight="normal"
       font-variant="normal"
       font-style="normal"
       stroke-miterlimit="10.433"
       xml:space="preserve"
       transform="matrix(1.9431878,0,0,-1.9431878,-179.92475,1521.9765)"
       id="g1345"
       style="font-style:normal;font-variant:normal;font-weight:normal;font-stretch:normal;letter-spacing:normal;word-spacing:normal;text-anchor:start;fill:#000000;fill-opacity:1;fill-rule:evenodd;stroke:#000000;stroke-linecap:butt;stroke-linejoin:miter;stroke-miterlimit:10.43299961;stroke-dasharray:none;stroke-dashoffset:0;stroke-opacity:1"><path
         id="path1329"
         d="m 151.73,710.37 0.04,0.26 0.68,2.7 c 0.09,0.35 0.11,0.38 0.54,0.38 h 0.96 c 0.82,0 1.35,-0.27 1.35,-0.95 0,-0.39 -0.2,-1.24 -0.59,-1.6 -0.49,-0.45 -1.09,-0.53 -1.53,-0.53 h -1.41 l -0.04,-0.26 h 1.7 c 1.42,0 2.8,1.04 2.8,2.15 0,0.76 -0.66,1.5 -1.96,1.5 h -3.23 c -0.19,0 -0.3,0 -0.3,-0.19 0,-0.12 0.09,-0.12 0.29,-0.12 0.12,0 0.31,-0.01 0.42,-0.02 0.16,-0.02 0.22,-0.05 0.22,-0.16 0,-0.04 -0.01,-0.07 -0.04,-0.19 l -1.33,-5.33 c -0.1,-0.39 -0.12,-0.47 -0.91,-0.47 -0.17,0 -0.28,0 -0.28,-0.19 0,-0.12 0.12,-0.12 0.15,-0.12 0.28,0 0.99,0.04 1.27,0.04 0.21,0 0.43,-0.01 0.63,-0.01 0.22,0 0.44,-0.03 0.65,-0.03 0.07,0 0.2,0 0.2,0.2 0,0.11 -0.09,0.11 -0.28,0.11 -0.36,0 -0.64,0 -0.64,0.18 0,0.06 0.01,0.11 0.03,0.17 z"
         inkscape:connector-curvature="0"
         style="fill:#000000;stroke-width:0" /><path
         id="path1331"
         d="m 159.79,704.85 v 0.01 0 0 0.01 0 0 0.01 0 0 l -0.01,0.01 v 0 0.01 0 l -0.01,0.01 v 0 l -0.01,0.01 v 0.01 h -0.01 v 0.01 h -0.01 v 0.01 0 h -0.01 v 0.01 0 l -0.01,0.01 v 0 l -0.01,0.01 v 0 l -0.01,0.01 v 0 l -0.01,0.01 v 0.01 h -0.01 l -0.01,0.01 v 0.01 h -0.01 l -0.01,0.01 v 0.01 h -0.01 l -0.01,0.01 -0.01,0.01 c -1.24,1.25 -1.56,3.13 -1.56,4.65 0,1.73 0.38,3.45 1.6,4.7 0.13,0.12 0.13,0.14 0.13,0.17 0,0.07 -0.04,0.09 -0.1,0.09 -0.1,0 -0.99,-0.67 -1.58,-1.93 -0.51,-1.09 -0.63,-2.2 -0.63,-3.03 0,-0.78 0.11,-1.98 0.66,-3.1 0.6,-1.22 1.45,-1.87 1.55,-1.87 0.06,0 0.1,0.03 0.1,0.1 z"
         inkscape:connector-curvature="0"
         style="fill:#000000;stroke-width:0" /><path
         id="path1333"
         d="m 163.7,710.23 v 0.03 l 0.01,0.03 0.01,0.03 0.01,0.04 0.01,0.04 0.01,0.04 0.01,0.04 0.02,0.05 0.01,0.04 0.02,0.05 0.02,0.05 0.02,0.05 0.02,0.05 0.03,0.05 0.02,0.05 0.03,0.05 0.03,0.05 0.03,0.04 0.04,0.05 0.03,0.04 0.04,0.05 0.04,0.04 0.04,0.04 0.04,0.03 0.05,0.03 0.05,0.03 0.03,0.01 0.02,0.02 0.03,0.01 0.02,0.01 0.03,0.01 h 0.03 l 0.03,0.01 0.03,0.01 h 0.03 0.03 l 0.03,0.01 h 0.03 c 0.06,0 0.29,0 0.5,-0.13 -0.28,-0.05 -0.47,-0.3 -0.47,-0.54 0,-0.16 0.1,-0.35 0.37,-0.35 0.22,0 0.54,0.18 0.54,0.58 0,0.52 -0.59,0.66 -0.92,0.66 -0.58,0 -0.93,-0.53 -1.05,-0.76 -0.25,0.66 -0.79,0.76 -1.08,0.76 -1.04,0 -1.61,-1.29 -1.61,-1.53 0,-0.1 0.11,-0.1 0.13,-0.1 0.07,0 0.11,0.02 0.12,0.11 0.34,1.05 1,1.3 1.34,1.3 0.19,0 0.54,-0.09 0.54,-0.67 0,-0.31 -0.17,-0.97 -0.54,-2.36 -0.16,-0.62 -0.51,-1.04 -0.95,-1.04 -0.06,0 -0.29,0 -0.5,0.13 0.25,0.05 0.47,0.26 0.47,0.54 0,0.27 -0.22,0.35 -0.36,0.35 -0.31,0 -0.55,-0.26 -0.55,-0.58 0,-0.46 0.49,-0.65 0.93,-0.65 0.66,0 1.02,0.69 1.05,0.75 0.12,-0.37 0.48,-0.75 1.08,-0.75 1.02,0 1.59,1.28 1.59,1.53 0,0.1 -0.09,0.1 -0.12,0.1 -0.09,0 -0.11,-0.04 -0.13,-0.11 -0.32,-1.07 -1,-1.31 -1.32,-1.31 -0.39,0 -0.55,0.32 -0.55,0.66 0,0.22 0.06,0.44 0.17,0.87 z"
         inkscape:connector-curvature="0"
         style="fill:#000000;stroke-width:0" /><path
         id="path1335"
         d="m 167.65,714.33 v 0.03 0.03 l -0.01,0.04 v 0.01 0.02 0.01 0.02 0.02 0.01 l -0.01,0.01 v 0.02 0.01 l -0.01,0.01 v 0.02 l -0.01,0.01 -0.01,0.01 v 0.01 l -0.01,0.01 -0.01,0.01 -0.01,0.01 h -0.01 l -0.01,0.01 h -0.01 v 0.01 h -0.01 v 0 h -0.01 l -0.01,0.01 h -0.01 v 0 h -0.01 -0.01 -0.01 -0.01 v 0 h -0.01 c -0.2,0 -0.2,-0.17 -0.2,-0.35 v -9.22 c 0,-0.18 0,-0.36 0.2,-0.36 0.2,0 0.2,0.18 0.2,0.36 z"
         inkscape:connector-curvature="0"
         style="fill:#000000;stroke-width:0" /><path
         id="path1337"
         d="m 169.28,706.02 -0.01,-0.03 -0.01,-0.03 v -0.03 l -0.01,-0.02 -0.01,-0.03 v -0.02 l -0.01,-0.02 -0.01,-0.02 -0.01,-0.02 -0.01,-0.02 v -0.02 l -0.01,-0.01 -0.01,-0.02 -0.01,-0.01 -0.02,-0.02 -0.01,-0.01 -0.01,-0.01 -0.02,-0.01 -0.01,-0.01 h -0.02 l -0.02,-0.01 -0.02,-0.01 h -0.02 L 169,705.63 h -0.03 -0.01 l -0.02,-0.01 h -0.01 -0.02 -0.01 -0.02 -0.01 -0.02 -0.02 -0.01 -0.02 -0.02 -0.02 -0.02 c -0.12,0 -0.23,0 -0.23,-0.19 0,-0.08 0.05,-0.12 0.13,-0.12 0.27,0 0.56,0.03 0.84,0.03 0.32,0 0.66,-0.03 0.98,-0.03 0.05,0 0.18,0 0.18,0.2 0,0.11 -0.1,0.11 -0.24,0.11 -0.5,0 -0.5,0.06 -0.5,0.16 0,0.11 0.42,1.73 0.49,1.98 0.13,-0.29 0.41,-0.63 0.92,-0.63 l -0.01,0.21 c -0.66,0 -0.79,0.83 -0.79,0.89 0,0.02 0,0.04 0.03,0.16 l 0.49,1.94 c 0.07,0.27 0.34,0.55 0.52,0.7 0.35,0.31 0.64,0.38 0.81,0.38 0.4,0 0.64,-0.35 0.64,-0.94 0,-0.58 -0.33,-1.73 -0.51,-2.1 -0.34,-0.7 -0.82,-1.03 -1.19,-1.03 l 0.01,-0.21 c 1.16,0 2.4,1.45 2.4,2.91 0,0.93 -0.56,1.59 -1.32,1.59 -0.5,0 -0.98,-0.36 -1.31,-0.75 -0.1,0.54 -0.53,0.75 -0.9,0.75 -0.45,0 -0.64,-0.39 -0.73,-0.57 -0.18,-0.34 -0.31,-0.93 -0.31,-0.96 0,-0.1 0.1,-0.1 0.12,-0.1 0.1,0 0.11,0.01 0.17,0.22 0.17,0.71 0.36,1.19 0.72,1.19 0.17,0 0.31,-0.08 0.31,-0.46 0,-0.23 -0.03,-0.34 -0.07,-0.51 z"
         inkscape:connector-curvature="0"
         style="fill:#000000;stroke-width:0" /><path
         id="path1339"
         d="m 177.56,710.99 -0.02,0.03 -0.02,0.04 -0.01,0.03 -0.02,0.03 -0.02,0.03 -0.02,0.03 -0.02,0.03 -0.03,0.03 -0.02,0.03 -0.02,0.03 -0.03,0.03 -0.02,0.02 -0.03,0.03 -0.02,0.02 -0.03,0.02 -0.03,0.03 -0.03,0.02 -0.03,0.02 -0.03,0.01 -0.03,0.02 -0.03,0.02 -0.03,0.01 -0.04,0.02 -0.03,0.01 -0.04,0.01 -0.03,0.01 -0.04,0.01 h -0.04 l -0.04,0.01 h -0.04 l -0.04,0.01 h -0.04 c -1.16,0 -2.4,-1.47 -2.4,-2.91 0,-0.94 0.55,-1.59 1.33,-1.59 l 0.02,0.21 c -0.5,0 -0.64,0.55 -0.64,0.94 0,0.5 0.32,1.72 0.55,2.17 0.3,0.59 0.75,0.96 1.15,0.96 0.65,0 0.79,-0.82 0.79,-0.88 0,-0.06 -0.02,-0.12 -0.03,-0.17 l -0.5,-1.94 c -0.05,-0.18 -0.05,-0.2 -0.2,-0.37 -0.44,-0.55 -0.85,-0.71 -1.12,-0.71 l -0.02,-0.21 c 0.19,0 0.69,0.03 1.29,0.74 0.08,-0.42 0.43,-0.74 0.91,-0.74 0.35,0 0.58,0.22 0.74,0.54 0.17,0.36 0.3,0.97 0.3,0.99 0,0.1 -0.09,0.1 -0.12,0.1 -0.1,0 -0.11,-0.04 -0.14,-0.18 -0.17,-0.65 -0.35,-1.24 -0.76,-1.24 -0.27,0 -0.3,0.26 -0.3,0.46 0,0.22 0.02,0.3 0.13,0.74 0.11,0.41 0.13,0.51 0.22,0.89 l 0.36,1.39 c 0.07,0.28 0.07,0.3 0.07,0.34 0,0.17 -0.12,0.27 -0.29,0.27 -0.24,0 -0.39,-0.22 -0.42,-0.44 z"
         inkscape:connector-curvature="0"
         style="fill:#000000;stroke-width:0" /><path
         id="path1341"
         d="m 182.99,708.4 0.67,0.66 c 0.89,0.87 1.16,1.15 1.8,1.18 0.09,0.01 0.17,0.01 0.17,0.15 0,0.08 -0.08,0.1 -0.1,0.1 -0.2,0 -0.45,-0.03 -0.66,-0.03 -0.18,0 -0.63,0.03 -0.81,0.03 -0.05,0 -0.14,-0.02 -0.14,-0.15 0,-0.01 0,-0.09 0.11,-0.1 0.06,-0.01 0.24,-0.02 0.24,-0.17 0,-0.11 -0.11,-0.22 -0.18,-0.29 -0.05,-0.05 -0.94,-0.91 -1.2,-1.17 l -0.71,1.36 c -0.01,0.02 -0.03,0.07 -0.03,0.1 0,0.04 0.13,0.16 0.37,0.17 0.05,0 0.14,0.01 0.14,0.15 0,0.01 0,0.1 -0.11,0.1 -0.15,0 -0.33,-0.02 -0.47,-0.02 -0.15,0 -0.31,-0.01 -0.46,-0.01 -0.12,0 -0.28,0 -0.41,0.01 -0.12,0.01 -0.26,0.02 -0.38,0.02 -0.03,0 -0.14,0 -0.14,-0.15 0,-0.1 0.09,-0.1 0.2,-0.1 0.4,0 0.44,-0.07 0.51,-0.21 l 0.98,-1.92 -0.39,-0.39 c -0.14,-0.12 -0.47,-0.44 -0.59,-0.57 -0.85,-0.84 -1.14,-1.13 -1.77,-1.16 -0.1,-0.01 -0.17,-0.01 -0.17,-0.15 0,-0.03 0.02,-0.1 0.09,-0.1 0.21,0 0.44,0.03 0.65,0.03 0.12,0 0.3,0 0.42,-0.01 0.12,0 0.28,-0.02 0.39,-0.02 0.04,0 0.15,0 0.15,0.15 0,0.09 -0.08,0.1 -0.12,0.1 -0.07,0.01 -0.22,0.03 -0.22,0.17 0,0.12 0.09,0.21 0.24,0.36 l 1.42,1.38 0.85,-1.64 c 0.03,-0.07 0.04,-0.09 0.04,-0.1 0,-0.04 -0.13,-0.15 -0.37,-0.17 -0.06,-0.01 -0.15,-0.01 -0.15,-0.15 0,-0.01 0,-0.1 0.12,-0.1 0.14,0 0.32,0.02 0.46,0.02 0.15,0 0.31,0.01 0.46,0.01 0.12,0 0.29,0 0.41,-0.01 0.12,0 0.27,-0.02 0.38,-0.02 0.03,0 0.14,0 0.14,0.15 0,0.1 -0.08,0.1 -0.2,0.1 -0.4,0 -0.44,0.08 -0.5,0.2 z"
         inkscape:connector-curvature="0"
         style="fill:#000000;stroke-width:0" /><path
         id="path1343"
         d="m 189.56,709.72 v 0.07 0.08 0.08 0.08 l -0.01,0.17 -0.01,0.17 -0.02,0.18 -0.02,0.19 -0.03,0.2 -0.03,0.2 -0.04,0.2 -0.05,0.21 -0.05,0.21 -0.06,0.21 -0.07,0.21 -0.08,0.21 -0.04,0.11 -0.05,0.11 -0.05,0.1 -0.05,0.11 c -0.6,1.22 -1.45,1.86 -1.55,1.86 -0.06,0 -0.1,-0.03 -0.1,-0.09 0,-0.03 0,-0.05 0.19,-0.23 0.97,-0.99 1.54,-2.57 1.54,-4.64 0,-1.7 -0.36,-3.45 -1.6,-4.7 -0.13,-0.12 -0.13,-0.14 -0.13,-0.17 0,-0.06 0.04,-0.1 0.1,-0.1 0.1,0 1,0.68 1.58,1.94 0.51,1.09 0.63,2.19 0.63,3.03 z"
         inkscape:connector-curvature="0"
         style="fill:#000000;stroke-width:0" /></g>  </g>
</svg>
